<?xml version="1.0" encoding="utf-8"?>
<!-- Generator: Adobe Illustrator 24.0.3, SVG Export Plug-In . SVG Version: 6.00 Build 0)  -->
<svg version="1.1" id="Layer_1" xmlns="http://www.w3.org/2000/svg" xmlns:xlink="http://www.w3.org/1999/xlink" x="0px" y="0px"
	 viewBox="0 0 110 153.6" style="enable-background:new 0 0 110 153.6;" xml:space="preserve">
<style type="text/css">
	.st0{fill:#01B1BC;}
	.st1{fill:#3AC7CF;}
	.st2{fill:#1D7258;}
	.st3{fill:#74DCE2;}
	.st4{fill:#ADF2F5;}
	.st5{fill:#54A74D;}
	.st6{fill:#388D52;}
	.st7{fill:#FFFFFF;}
</style>
<title>logo4</title>
<path class="st0" d="M39.2,57c-12.9,5.4-19.1,20.2-13.7,33.1C38.3,84.8,44.5,69.9,39.2,57z"/>
<path class="st1" d="M11.6,57.1c-5.3,13,0.8,27.8,13.8,33.2C30.7,77.3,24.6,62.5,11.6,57.1z"/>
<path class="st2" d="M44.8,90.3H34.4v6h16.4C50.8,93,48.1,90.3,44.8,90.3z"/>
<path class="st2" d="M5.9,90.3h10.5v6H0C0,93,2.7,90.3,5.9,90.3z"/>
<path class="st3" d="M0,64.9c0,14,11.4,25.4,25.4,25.4C25.4,76.3,14,64.9,0,64.9z"/>
<path class="st1" d="M50.8,64.9c-14,0-25.4,11.4-25.4,25.4C39.4,90.3,50.7,78.9,50.8,64.9z"/>
<path class="st3" d="M25.4,54.4l-6,18l6,18C35.3,80.5,35.4,64.4,25.4,54.4C25.4,54.4,25.4,54.4,25.4,54.4z"/>
<path class="st4" d="M25.4,90.3V54.4C15.5,64.3,15.5,80.4,25.4,90.3z"/>
<path class="st5" d="M16.4,90.3c-4.9,0-8.9,4-8.9,8.9h9c4.9,0,8.9-4,8.9-8.9H16.4z"/>
<path class="st6" d="M34.4,90.3h-9c0,4.9,4,8.9,8.9,8.9h9C43.3,94.3,39.3,90.3,34.4,90.3z"/>
<path class="st7" d="M66,59.9h-2.3v5.9h-3.2v-5.9h-2.5v-3.2h8L66,59.9z"/>
<path class="st7" d="M74.8,56.7v9.1h-3.2v-4.4h-1.2v4.4h-3.2v-9.1h3.2v4.1h1.2v-4.1H74.8z"/>
<path class="st7" d="M79.6,59.9v1h3.1v0.6h-3.1v1.1h3.8v3.2h-7v-9.1h7v3.2H79.6z"/>
<path class="st7" d="M67.4,67.7l-4.8,9.4l-4.8-9.4H67.4z"/>
<path class="st7" d="M71.4,70.9v1h3.1v0.6h-3.1v1.1h3.8v3.2h-7v-9.1h7v3.2L71.4,70.9z"/>
<path class="st7" d="M84.8,72.3v3.3c-1,0.9-2.3,1.3-3.6,1.3c-3.1,0-5-1.8-5-4.6c0-2.8,2.2-4.8,5.2-4.8v4.8H84.8z"/>
<path class="st7" d="M90.1,67.3l4.8,9.5h-9.6L90.1,67.3z"/>
<path class="st7" d="M103.7,67.7v9.1h-7.9v-9.3l4.7,4.6v-4.4H103.7z"/>
<path class="st7" d="M65.5,85.3c0,2.5-2.2,2.5-4,2.5h-3.1v-9.1h2.7c1.7,0,3.8,0,3.8,2.2c0,0.9-0.5,1.7-1.4,1.9
	C64.7,83.1,65.5,84.1,65.5,85.3z"/>
<path class="st7" d="M69.9,81.9v1h3.1v0.6h-3.1v1.1h3.8v3.2h-7v-9.1h7v3.2L69.9,81.9z"/>
<path class="st7" d="M79.2,78.3l4.8,9.5h-9.7L79.2,78.3z"/>
<path class="st7" d="M84.2,83.5v-4.8h3.3v5.9h1v-5.9h3.3v4.8c0,1.5,0,4.5-3.8,4.5S84.2,85,84.2,83.5z"/>
<path class="st7" d="M100.8,81.9h-2.2v5.9h-3.2v-5.9h-2.5v-3.2h8V81.9z"/>
<path class="st7" d="M107.4,83.8v4h-3.2v-3.5l-2.8-5.6h8.7L107.4,83.8z"/>
<path class="st7" d="M58.1,95.6c1.7,0,2.3-0.4,3.3-2.9c0.8-2.1,2-3,4.1-3h0.4v3.2l0,0c-1,0-1.4,0.9-1.9,2.4
	c-0.6,2.2-2.7,3.7-5.1,3.5h-0.8L58.1,95.6z"/>
<path class="st7" d="M74.8,89.7v9.1h-3.2v-4.4h-1.2v4.4h-3.2v-9.1h3.2v4.1h1.2v-4.1H74.8z"/>
<path class="st7" d="M75.9,94.2c0-2.6,2.1-4.7,4.7-4.7s4.7,2.1,4.7,4.7c0,2.6-2.1,4.7-4.7,4.7c-2.5,0.1-4.6-1.9-4.7-4.4
	C75.9,94.4,75.9,94.3,75.9,94.2z"/>
<path class="st7" d="M89.7,96v2.8h-3.2v-9.1h3.2c1.1,0,4,0.1,4,3.2C93.7,94.9,92.3,95.9,89.7,96z"/>
</svg>
