<?xml version="1.0" encoding="utf-8"?>
<!-- Generator: Adobe Illustrator 24.1.2, SVG Export Plug-In . SVG Version: 6.00 Build 0)  -->
<svg version="1.1" id="Ebene_1" xmlns="http://www.w3.org/2000/svg" xmlns:xlink="http://www.w3.org/1999/xlink" x="0px" y="0px"
	 viewBox="0 0 451.3 142.8" enable-background="new 0 0 451.3 142.8" xml:space="preserve">
<g>
	<g>
		<path fill="#40C8DC" d="M18.3,30.4v12.7h-15v-42h15c5,0,18.4,0.6,18.4,14.8C36.7,25.3,30.7,30,18.3,30.4z"/>
		<path fill="#40C8DC" d="M75.7,43.1H41.6v-42h14.2c7.6,0,19.3,0,19.3,12.5c0,6.5-3.1,10.7-10,12.5L75.7,43.1z"/>
		<path fill="#40C8DC" d="M95.3,15.8v4.7h14.1v2.8H95.3v5h17.3v14.8H80.5v-42h32.1v14.8H95.3z"/>
		<path fill="#40C8DC" d="M154,15.8h-10.4v27.2h-15V15.8h-11.4V1.1H154V15.8z"/>
		<path fill="#40C8DC" d="M194.2,15.8h-10.4v27.2h-15V15.8h-11.4V1.1h36.8V15.8z"/>
		<path fill="#40C8DC" d="M224.8,24.8v18.3h-15V26.9L196.6,1.1h40.2L224.8,24.8z"/>
		<path fill="#40C8DC" d="M253.9,1.1h15v42h-15V1.1z"/>
		<path fill="#40C8DC" d="M312.8,1.1v42h-36.7V0l21.7,21.4V1.1H312.8z"/>
		<path fill="#40C8DC" d="M318.3,28.3c7.9,0,10.7-2,15.1-13.2c3.8-9.7,9.1-14,19-14h2v14.7h-0.1c-4.7,0-6.4,4.3-8.8,11
			C341.5,38,334,43.1,322.2,43.1h-3.9V28.3z"/>
		<path fill="#40C8DC" d="M359.9,1.1h15v42h-15V1.1z"/>
		<path fill="#40C8DC" d="M382.1,1.1h7.1c5,0,24.8,0,24.8,20.9c0,21.1-18.4,21.1-22.4,21.1h-9.5V1.1z"/>
		<path fill="#40C8DC" d="M433.9,15.8v4.7H448v2.8h-14.1v5h17.3v14.8h-32.1v-42h32.1v14.8H433.9z"/>
		<path fill="#40C8DC" d="M22.3,58.9l22.3,43.8H0L22.3,58.9z"/>
		<path fill="#40C8DC" d="M85.1,60.7v42H48.4V59.6L70.1,81V60.7H85.1z"/>
		<path fill="#40C8DC" d="M92.3,60.7h7.1c5,0,24.8,0,24.8,20.9c0,21.1-18.4,21.1-22.4,21.1h-9.5V60.7z"/>
		<path fill="#40C8DC" d="M143.4,81.6c0-12.5,9.2-21.7,21.8-21.7c12.5,0,21.7,9.2,21.7,21.7c0,12.6-9.2,21.8-21.6,21.8
			C152.6,103.4,143.4,94.2,143.4,81.6z"/>
		<path fill="#40C8DC" d="M191.3,82.7v-22h15.2v27.4h4.5V60.7h15.2v22c0,7.1,0,20.6-17.5,20.6C191.3,103.4,191.3,89.9,191.3,82.7z"
			/>
		<path fill="#40C8DC" d="M267.8,75.5h-10.4v27.2h-15V75.5H231V60.7h36.8V75.5z"/>
		<path fill="#FFFFFF" d="M0.7,128.3c0-6,3.4-9.6,8.7-9.6c4.3,0,7.6,2.7,8,6.7h-3.3c-0.4-2.3-2.3-3.9-4.8-3.9
			c-3.2,0-5.3,2.6-5.3,6.8c0,4.2,2,6.8,5.3,6.8c2.5,0,4.2-1.3,4.8-3.6h3.3c-0.6,4-3.6,6.4-8,6.4C4.1,138,0.7,134.3,0.7,128.3z"/>
		<path fill="#FFFFFF" d="M19.6,124h3.1v2.4h0.1c0.5-1.7,1.7-2.6,3.3-2.6c0.4,0,0.8,0.1,1,0.1v2.9c-0.3-0.1-0.8-0.2-1.3-0.2
			c-1.8,0-2.9,1.2-2.9,3.1v8h-3.2V124z"/>
		<path fill="#FFFFFF" d="M40.9,137.7h-3.1v-2.4h-0.1c-0.7,1.7-2.1,2.6-4.2,2.6c-3,0-4.9-1.9-4.9-5.1V124h3.2v8.2c0,2,1,3,2.8,3
			c1.9,0,3-1.3,3-3.3V124h3.2V137.7z"/>
		<path fill="#FFFFFF" d="M55.6,133.6c-0.4,2.6-2.8,4.4-6.1,4.4c-4.1,0-6.6-2.7-6.6-7.1c0-4.3,2.5-7.2,6.5-7.2
			c3.9,0,6.3,2.7,6.3,6.9v1h-9.6v0.2c0,2.2,1.3,3.7,3.5,3.7c1.5,0,2.6-0.8,3-1.9H55.6z M46.2,129.5h6.4c-0.1-1.9-1.3-3.3-3.2-3.3
			C47.6,126.2,46.3,127.6,46.2,129.5z"/>
		<path fill="#FFFFFF" d="M57.9,119h3.2v18.7h-3.2V119z"/>
		<path fill="#FFFFFF" d="M68,120.8v3.2h2.6v2.5H68v7.1c0,1.1,0.5,1.6,1.7,1.6c0.3,0,0.7,0,0.9-0.1v2.5c-0.3,0.1-1,0.1-1.7,0.1
			c-3,0-4.1-1-4.1-3.7v-7.6h-2V124h2v-3.2H68z"/>
		<path fill="#FFFFFF" d="M73.1,142.7v-2.5c0.2,0,0.7,0.1,0.9,0.1c1.3,0,2-0.5,2.4-1.8c0,0,0.2-0.7,0.2-0.8L71.7,124h3.5l3.2,11h0.1
			l3.2-11h3.4l-5,14.3c-1.2,3.4-2.7,4.6-5.8,4.6C74.1,142.8,73.2,142.8,73.1,142.7z"/>
		<path fill="#FFFFFF" d="M86.7,131.5v-2.9h8.5v2.9H86.7z"/>
		<path fill="#FFFFFF" d="M99,126.5h-1.9V124H99v-1.2c0-2.7,1.3-3.9,4.2-3.9c0.6,0,1.3,0.1,1.7,0.1v2.3c-0.3,0-0.6-0.1-1-0.1
			c-1.2,0-1.8,0.6-1.8,1.7v1.1h2.7v2.4h-2.7v11.2H99V126.5z"/>
		<path fill="#FFFFFF" d="M107,124h3.1v2.4h0.1c0.5-1.7,1.7-2.6,3.3-2.6c0.4,0,0.8,0.1,1,0.1v2.9c-0.3-0.1-0.8-0.2-1.3-0.2
			c-1.8,0-2.9,1.2-2.9,3.1v8H107V124z"/>
		<path fill="#FFFFFF" d="M127.7,133.6c-0.4,2.6-2.8,4.4-6.1,4.4c-4.1,0-6.6-2.7-6.6-7.1c0-4.3,2.5-7.2,6.5-7.2
			c3.9,0,6.3,2.7,6.3,6.9v1h-9.6v0.2c0,2.2,1.3,3.7,3.5,3.7c1.5,0,2.6-0.8,3-1.9H127.7z M118.3,129.5h6.4c-0.1-1.9-1.3-3.3-3.2-3.3
			C119.7,126.2,118.4,127.6,118.3,129.5z"/>
		<path fill="#FFFFFF" d="M142,133.6c-0.4,2.6-2.8,4.4-6.1,4.4c-4.1,0-6.6-2.7-6.6-7.1c0-4.3,2.5-7.2,6.5-7.2c3.9,0,6.3,2.7,6.3,6.9
			v1h-9.6v0.2c0,2.2,1.3,3.7,3.5,3.7c1.5,0,2.6-0.8,3-1.9H142z M132.6,129.5h6.4c-0.1-1.9-1.3-3.3-3.2-3.3
			C134,126.2,132.7,127.6,132.6,129.5z"/>
		<path fill="#FFFFFF" d="M158.5,128.9c-0.3-1.5-1.3-2.6-3-2.6c-2,0-3.3,1.7-3.3,4.5c0,2.9,1.3,4.5,3.4,4.5c1.6,0,2.7-0.9,3-2.5h3
			c-0.3,3.1-2.6,5.1-6.1,5.1c-4,0-6.6-2.7-6.6-7.1c0-4.4,2.6-7.1,6.6-7.1c3.6,0,5.9,2.3,6.1,5.2H158.5z"/>
		<path fill="#FFFFFF" d="M162.9,130.8c0-4.4,2.6-7.1,6.6-7.1s6.6,2.7,6.6,7.1c0,4.5-2.6,7.1-6.6,7.1
			C165.6,138,162.9,135.3,162.9,130.8z M172.9,130.8c0-2.9-1.3-4.6-3.4-4.6c-2,0-3.4,1.7-3.4,4.6c0,2.9,1.3,4.6,3.4,4.6
			C171.6,135.4,172.9,133.8,172.9,130.8z"/>
		<path fill="#FFFFFF" d="M183.5,123.7c3.3,0,5.5,1.8,5.5,4.4h-3c-0.1-1.2-1-2-2.5-2c-1.4,0-2.4,0.7-2.4,1.7c0,0.8,0.6,1.3,2,1.7
			l2.3,0.5c2.8,0.6,3.9,1.7,3.9,3.7c0,2.6-2.4,4.3-5.7,4.3c-3.6,0-5.7-1.7-6-4.4h3.2c0.2,1.3,1.2,2,2.8,2c1.6,0,2.5-0.6,2.5-1.7
			c0-0.8-0.5-1.3-1.9-1.6l-2.3-0.5c-2.6-0.6-3.9-1.9-3.9-3.9C178,125.4,180.2,123.7,183.5,123.7z"/>
		<path fill="#FFFFFF" d="M191.5,124h3.1v2.4h0.1c0.6-1.6,2-2.6,3.9-2.6c1.9,0,3.3,1,3.8,2.8h0.1c0.7-1.7,2.3-2.8,4.3-2.8
			c2.7,0,4.5,1.8,4.5,4.6v9.4h-3.2v-8.6c0-1.7-0.9-2.6-2.5-2.6c-1.6,0-2.6,1.1-2.6,2.8v8.5h-3.1v-8.8c0-1.5-0.9-2.5-2.4-2.5
			c-1.6,0-2.6,1.2-2.6,2.9v8.4h-3.2V124z"/>
		<path fill="#FFFFFF" d="M225.8,133.6c-0.4,2.6-2.8,4.4-6.1,4.4c-4.1,0-6.6-2.7-6.6-7.1c0-4.3,2.5-7.2,6.5-7.2
			c3.9,0,6.3,2.7,6.3,6.9v1h-9.6v0.2c0,2.2,1.3,3.7,3.5,3.7c1.5,0,2.6-0.8,3-1.9H225.8z M216.4,129.5h6.4c-0.1-1.9-1.3-3.3-3.2-3.3
			C217.8,126.2,216.5,127.6,216.4,129.5z"/>
		<path fill="#FFFFFF" d="M232.2,120.8v3.2h2.6v2.5h-2.6v7.1c0,1.1,0.5,1.6,1.7,1.6c0.3,0,0.7,0,0.9-0.1v2.5c-0.3,0.1-1,0.1-1.7,0.1
			c-3,0-4.1-1-4.1-3.7v-7.6h-2V124h2v-3.2H232.2z"/>
		<path fill="#FFFFFF" d="M236.8,120.2c0-1,0.8-1.7,1.8-1.7s1.8,0.8,1.8,1.7c0,1-0.8,1.7-1.8,1.7S236.8,121.1,236.8,120.2z M237,124
			h3.2v13.7H237V124z"/>
		<path fill="#FFFFFF" d="M252,128.9c-0.3-1.5-1.3-2.6-3-2.6c-2,0-3.3,1.7-3.3,4.5c0,2.9,1.3,4.5,3.4,4.5c1.6,0,2.7-0.9,3-2.5h3
			c-0.3,3.1-2.6,5.1-6.1,5.1c-4,0-6.6-2.7-6.6-7.1c0-4.4,2.6-7.1,6.6-7.1c3.6,0,5.9,2.3,6.1,5.2H252z"/>
		<path fill="#FFFFFF" d="M262.2,123.7c3.3,0,5.5,1.8,5.5,4.4h-3c-0.1-1.2-1-2-2.5-2c-1.4,0-2.4,0.7-2.4,1.7c0,0.8,0.6,1.3,2,1.7
			l2.3,0.5c2.8,0.6,3.9,1.7,3.9,3.7c0,2.6-2.4,4.3-5.7,4.3c-3.6,0-5.7-1.7-6-4.4h3.2c0.2,1.3,1.2,2,2.8,2c1.6,0,2.5-0.6,2.5-1.7
			c0-0.8-0.5-1.3-1.9-1.6l-2.3-0.5c-2.6-0.6-3.9-1.9-3.9-3.9C256.7,125.4,258.9,123.7,262.2,123.7z"/>
	</g>
</g>
</svg>
