<?xml version="1.0" encoding="utf-8"?>
<!-- Generator: Adobe Illustrator 24.1.2, SVG Export Plug-In . SVG Version: 6.00 Build 0)  -->
<svg version="1.1" id="Layer_1" xmlns="http://www.w3.org/2000/svg" xmlns:xlink="http://www.w3.org/1999/xlink" x="0px" y="0px"
	 viewBox="0 0 110 44.8" enable-background="new 0 0 110 44.8" xml:space="preserve">
<g>
	<path fill="#01B1BC" d="M39.2,2.6C26.2,8,20.1,22.8,25.4,35.8C38.3,30.4,44.5,15.6,39.2,2.6z"/>
	<path fill="#3AC7CF" d="M11.6,2.8c-5.3,13,0.8,27.8,13.8,33.2C30.7,23,24.6,8.1,11.6,2.8z"/>
	<path fill="#1D7258" d="M44.8,35.9H34.4v6h16.4C50.8,38.6,48.1,36,44.8,35.9z"/>
	<path fill="#1D7258" d="M5.9,35.9h10.5v6H0C0,38.6,2.7,35.9,5.9,35.9z"/>
	<path fill="#74DCE2" d="M0,10.5c0,14,11.4,25.4,25.4,25.4C25.4,21.9,14,10.5,0,10.5z"/>
	<path fill="#3AC7CF" d="M50.8,10.5c-14,0-25.4,11.4-25.4,25.4C39.4,35.9,50.7,24.5,50.8,10.5z"/>
	<path fill="#74DCE2" d="M25.4,0l-6,18l6,18C35.3,26.1,35.4,10,25.4,0C25.4,0,25.4,0,25.4,0z"/>
	<path fill="#ADF2F5" d="M25.4,35.9V0C15.5,9.9,15.5,26,25.4,35.9z"/>
	<path fill="#54A74D" d="M16.4,35.9c-4.9,0-8.9,4-8.9,8.9h9c4.9,0,8.9-4,8.9-8.9H16.4z"/>
	<path fill="#388D52" d="M34.4,35.9h-9c0,4.9,4,8.9,8.9,8.9h9C43.3,39.9,39.3,36,34.4,35.9z"/>
	<path fill="#FFFFFF" d="M66,5.5h-2.3v5.9h-3.2V5.5h-2.5V2.3h8L66,5.5z"/>
	<path fill="#FFFFFF" d="M74.8,2.3v9.1h-3.2V7h-1.2v4.4h-3.2V2.3h3.2v4.1h1.2V2.3H74.8z"/>
	<path fill="#FFFFFF" d="M79.6,5.5v1h3.1v0.6h-3.1v1.1h3.8v3.2h-7V2.3h7v3.2H79.6z"/>
	<path fill="#FFFFFF" d="M67.4,13.3l-4.8,9.4l-4.8-9.4H67.4z"/>
	<path fill="#FFFFFF" d="M71.4,16.5v1h3.1v0.6h-3.1v1.1h3.8v3.2h-7v-9.1h7v3.2L71.4,16.5z"/>
	<path fill="#FFFFFF" d="M84.8,18v3.3c-1,0.9-2.3,1.3-3.6,1.3c-3.1,0-5-1.8-5-4.6s2.2-4.9,5.2-4.9V18H84.8z"/>
	<path fill="#FFFFFF" d="M90.1,12.9l4.8,9.5h-9.6L90.1,12.9z"/>
	<path fill="#FFFFFF" d="M103.7,13.3v9.1h-7.9v-9.3l4.7,4.6v-4.4H103.7z"/>
	<path fill="#FFFFFF" d="M65.5,30.9c0,2.5-2.2,2.5-4,2.5h-3.1v-9.1h2.7c1.7,0,3.8,0,3.8,2.2c0,0.9-0.5,1.7-1.4,2
		C64.7,28.7,65.5,29.8,65.5,30.9z"/>
	<path fill="#FFFFFF" d="M69.9,27.5v1h3.1v0.6h-3.1v1.1h3.8v3.2h-7v-9.1h7v3.2L69.9,27.5z"/>
	<path fill="#FFFFFF" d="M79.2,23.9l4.8,9.5h-9.7L79.2,23.9z"/>
	<path fill="#FFFFFF" d="M84.2,29.1v-4.8h3.3v5.9h1v-5.9h3.3v4.8c0,1.5,0,4.5-3.8,4.5S84.2,30.6,84.2,29.1z"/>
	<path fill="#FFFFFF" d="M100.8,27.5h-2.2v5.9h-3.2v-5.9h-2.5v-3.2h8V27.5z"/>
	<path fill="#FFFFFF" d="M107.4,29.4v4h-3.2v-3.5l-2.8-5.6h8.7L107.4,29.4z"/>
	<path fill="#FFFFFF" d="M58.1,41.2c1.7,0,2.3-0.4,3.3-2.9c0.8-2.1,2-3,4.1-3h0.4v3.2l0,0c-1,0-1.4,0.9-1.9,2.4
		c-0.6,2.2-2.7,3.7-5.1,3.5h-0.8L58.1,41.2z"/>
	<path fill="#FFFFFF" d="M74.8,35.3v9.1h-3.2V40h-1.2v4.4h-3.2v-9.1h3.2v4.1h1.2v-4.1H74.8z"/>
	<path fill="#FFFFFF" d="M75.9,39.8c0-2.6,2.1-4.7,4.7-4.7c2.6,0,4.7,2.1,4.7,4.7c0,2.6-2.1,4.7-4.7,4.7c-2.5,0.1-4.6-1.9-4.7-4.4
		C75.9,40.1,75.9,40,75.9,39.8z"/>
	<path fill="#FFFFFF" d="M89.7,41.6v2.8h-3.2v-9.1h3.2c1.1,0,4,0.1,4,3.2C93.7,40.6,92.3,41.6,89.7,41.6z"/>
</g>
</svg>
