<svg height="3.8em" viewBox="0 0 512 512" width="3.8em" xmlns="http://www.w3.org/2000/svg"><path d="m394.773438 26.367188c-130.414063 54.019531-192.5625 204.066406-138.542969 334.480468 130.414062-54.019531 192.566406-204.066406 138.542969-334.480468zm0 0" fill="#01b1bc"/><path d="m117.453125 27.558594c-54.019531 130.414062 8.132813 280.460937 138.546875 334.480468 54.019531-130.414062-8.132812-280.460937-138.546875-334.480468zm0 0" fill="#3ac7cf"/><path d="m452 362.039062h-105.5v60h165.5c0-33-27-60-60-60zm0 0" fill="#1d7258"/><path d="m60 362.039062h105.5v60h-165.5c0-33 27-60 60-60zm0 0" fill="#1d7258"/><path d="m0 106.039062c0 141.15625 114.839844 256 256 256 0-141.160156-114.839844-256-256-256zm0 0" fill="#74dce2"/><path d="m512 106.039062c-141.160156 0-256 114.839844-256 256 141.160156 0 256-114.84375 256-256zm0 0" fill="#3ac7cf"/><path d="m256 0-60 181.019531 60 181.019531c99.8125-99.816406 99.8125-262.226562 0-362.039062zm0 0" fill="#74dce2"/><path d="m256 362.039062v-362.039062c-99.8125 99.8125-99.8125 262.222656 0 362.039062zm0 0" fill="#adf2f5"/><path d="m165.5 362.039062c-49.5 0-90 40.5-90 90h90.5c49.5 0 90-40.5 90-90zm0 0" fill="#54a74d"/><path d="m346.5 362.039062h-90.5c0 49.5 40.5 90 90 90h90.5c0-49.5-40.5-90-90-90zm0 0" fill="#388d52"/></svg>