<?xml version="1.0" encoding="utf-8"?>
<!-- Generator: Adobe Illustrator 24.1.2, SVG Export Plug-In . SVG Version: 6.00 Build 0)  -->
<svg version="1.1" id="Ebene_1" xmlns="http://www.w3.org/2000/svg" xmlns:xlink="http://www.w3.org/1999/xlink" x="0px" y="0px"
	 viewBox="0 0 268.1 201.3" enable-background="new 0 0 268.1 201.3" xml:space="preserve">
<g>
	<path fill="#40C8DC" d="M18.3,29.3V42h-15V0h15c5,0,18.4,0.6,18.4,14.8C36.7,24.2,30.7,28.9,18.3,29.3z"/>
	<path fill="#40C8DC" d="M75.7,42H41.6V0h14.2C63.4,0,75,0,75,12.5C75,19,71.9,23.2,65,25L75.7,42z"/>
	<path fill="#40C8DC" d="M95.3,14.8v4.7h14.1v2.8H95.3v5h17.3V42H80.5V0h32.1v14.8H95.3z"/>
	<path fill="#40C8DC" d="M154,14.8h-10.4V42h-15V14.8h-11.4V0H154V14.8z"/>
	<path fill="#40C8DC" d="M194.2,14.8h-10.4V42h-15V14.8h-11.4V0h36.8V14.8z"/>
	<path fill="#40C8DC" d="M224.8,23.7V42h-15V25.8L196.6,0h40.2L224.8,23.7z"/>
	<path fill="#40C8DC" d="M3.3,59.6h15v42h-15V59.6z"/>
	<path fill="#40C8DC" d="M62.2,59.6v42H25.5V58.5l21.7,21.4V59.6H62.2z"/>
	<path fill="#40C8DC" d="M67.7,86.9c7.9,0,10.7-2,15.1-13.2c3.8-9.7,9.1-14,19-14h2v14.7h-0.1c-4.7,0-6.4,4.3-8.8,11
		c-4.1,11.2-11.6,16.3-23.3,16.3h-3.9V86.9z"/>
	<path fill="#40C8DC" d="M109.3,59.6h15v42h-15V59.6z"/>
	<path fill="#40C8DC" d="M131.5,59.6h7.1c5,0,24.8,0,24.8,20.9c0,21.1-18.4,21.1-22.4,21.1h-9.5V59.6z"/>
	<path fill="#40C8DC" d="M183.3,74.4v4.7h14.1v2.8h-14.1v5h17.3v14.8h-32.1v-42h32.1v14.8H183.3z"/>
	<path fill="#40C8DC" d="M22.3,117.4l22.3,43.8H0L22.3,117.4z"/>
	<path fill="#40C8DC" d="M85.1,119.2v42H48.4v-43.1l21.7,21.4v-20.3H85.1z"/>
	<path fill="#40C8DC" d="M92.3,119.2h7.1c5,0,24.8,0,24.8,20.9c0,21.1-18.4,21.1-22.4,21.1h-9.5V119.2z"/>
	<path fill="#40C8DC" d="M143.4,140.2c0-12.5,9.2-21.7,21.8-21.7c12.5,0,21.7,9.2,21.7,21.7c0,12.6-9.2,21.8-21.6,21.8
		C152.6,161.9,143.4,152.8,143.4,140.2z"/>
	<path fill="#40C8DC" d="M191.3,141.2v-22h15.2v27.4h4.5v-27.4h15.2v22c0,7.1,0,20.6-17.5,20.6C191.3,161.9,191.3,148.4,191.3,141.2
		z"/>
	<path fill="#40C8DC" d="M267.8,134h-10.4v27.2h-15V134H231v-14.8h36.8V134z"/>
	<path fill="#FFFFFF" d="M0.7,186.9c0-6,3.4-9.6,8.7-9.6c4.3,0,7.6,2.7,8,6.7h-3.3c-0.4-2.3-2.3-3.9-4.8-3.9c-3.2,0-5.3,2.6-5.3,6.8
		c0,4.2,2,6.8,5.3,6.8c2.5,0,4.2-1.3,4.8-3.6h3.3c-0.6,4-3.6,6.4-8,6.4C4.1,196.5,0.7,192.9,0.7,186.9z"/>
	<path fill="#FFFFFF" d="M19.6,182.5h3.1v2.4h0.1c0.5-1.7,1.7-2.6,3.3-2.6c0.4,0,0.8,0.1,1,0.1v2.9c-0.3-0.1-0.8-0.2-1.3-0.2
		c-1.8,0-2.9,1.2-2.9,3.1v8h-3.2V182.5z"/>
	<path fill="#FFFFFF" d="M40.9,196.2h-3.1v-2.4h-0.1c-0.7,1.7-2.1,2.6-4.2,2.6c-3,0-4.9-1.9-4.9-5.1v-8.9h3.2v8.2c0,2,1,3,2.8,3
		c1.9,0,3-1.3,3-3.3v-7.9h3.2V196.2z"/>
	<path fill="#FFFFFF" d="M55.6,192.1c-0.4,2.6-2.8,4.4-6.1,4.4c-4.1,0-6.6-2.7-6.6-7.1c0-4.3,2.5-7.2,6.5-7.2c3.9,0,6.3,2.7,6.3,6.9
		v1h-9.6v0.2c0,2.2,1.3,3.7,3.5,3.7c1.5,0,2.6-0.8,3-1.9H55.6z M46.2,188h6.4c-0.1-1.9-1.3-3.3-3.2-3.3
		C47.6,184.7,46.3,186.1,46.2,188z"/>
	<path fill="#FFFFFF" d="M57.9,177.6h3.2v18.7h-3.2V177.6z"/>
	<path fill="#FFFFFF" d="M68,179.3v3.2h2.6v2.5H68v7.1c0,1.1,0.5,1.6,1.7,1.6c0.3,0,0.7,0,0.9-0.1v2.5c-0.3,0.1-1,0.1-1.7,0.1
		c-3,0-4.1-1-4.1-3.7V185h-2v-2.5h2v-3.2H68z"/>
	<path fill="#FFFFFF" d="M73.1,201.3v-2.5c0.2,0,0.7,0.1,0.9,0.1c1.3,0,2-0.5,2.4-1.8c0,0,0.2-0.7,0.2-0.8l-4.9-13.7h3.5l3.2,11h0.1
		l3.2-11h3.4l-5,14.3c-1.2,3.4-2.7,4.6-5.8,4.6C74.1,201.3,73.2,201.3,73.1,201.3z"/>
	<path fill="#FFFFFF" d="M86.7,190.1v-2.9h8.5v2.9H86.7z"/>
	<path fill="#FFFFFF" d="M99,185h-1.9v-2.4H99v-1.2c0-2.7,1.3-3.9,4.2-3.9c0.6,0,1.3,0.1,1.7,0.1v2.3c-0.3,0-0.6-0.1-1-0.1
		c-1.2,0-1.8,0.6-1.8,1.7v1.1h2.7v2.4h-2.7v11.2H99V185z"/>
	<path fill="#FFFFFF" d="M107,182.5h3.1v2.4h0.1c0.5-1.7,1.7-2.6,3.3-2.6c0.4,0,0.8,0.1,1,0.1v2.9c-0.3-0.1-0.8-0.2-1.3-0.2
		c-1.8,0-2.9,1.2-2.9,3.1v8H107V182.5z"/>
	<path fill="#FFFFFF" d="M127.7,192.1c-0.4,2.6-2.8,4.4-6.1,4.4c-4.1,0-6.6-2.7-6.6-7.1c0-4.3,2.5-7.2,6.5-7.2
		c3.9,0,6.3,2.7,6.3,6.9v1h-9.6v0.2c0,2.2,1.3,3.7,3.5,3.7c1.5,0,2.6-0.8,3-1.9H127.7z M118.3,188h6.4c-0.1-1.9-1.3-3.3-3.2-3.3
		C119.7,184.7,118.4,186.1,118.3,188z"/>
	<path fill="#FFFFFF" d="M142,192.1c-0.4,2.6-2.8,4.4-6.1,4.4c-4.1,0-6.6-2.7-6.6-7.1c0-4.3,2.5-7.2,6.5-7.2c3.9,0,6.3,2.7,6.3,6.9
		v1h-9.6v0.2c0,2.2,1.3,3.7,3.5,3.7c1.5,0,2.6-0.8,3-1.9H142z M132.6,188h6.4c-0.1-1.9-1.3-3.3-3.2-3.3
		C134,184.7,132.7,186.1,132.6,188z"/>
	<path fill="#FFFFFF" d="M158.5,187.4c-0.3-1.5-1.3-2.6-3-2.6c-2,0-3.3,1.7-3.3,4.5c0,2.9,1.3,4.5,3.4,4.5c1.6,0,2.7-0.9,3-2.5h3
		c-0.3,3.1-2.6,5.1-6.1,5.1c-4,0-6.6-2.7-6.6-7.1c0-4.4,2.6-7.1,6.6-7.1c3.6,0,5.9,2.3,6.1,5.2H158.5z"/>
	<path fill="#FFFFFF" d="M162.9,189.4c0-4.4,2.6-7.1,6.6-7.1s6.6,2.7,6.6,7.1c0,4.5-2.6,7.1-6.6,7.1
		C165.6,196.5,162.9,193.8,162.9,189.4z M172.9,189.4c0-2.9-1.3-4.6-3.4-4.6c-2,0-3.4,1.7-3.4,4.6c0,2.9,1.3,4.6,3.4,4.6
		C171.6,193.9,172.9,192.3,172.9,189.4z"/>
	<path fill="#FFFFFF" d="M183.5,182.2c3.3,0,5.5,1.8,5.5,4.4h-3c-0.1-1.2-1-2-2.5-2c-1.4,0-2.4,0.7-2.4,1.7c0,0.8,0.6,1.3,2,1.7
		l2.3,0.5c2.8,0.6,3.9,1.7,3.9,3.7c0,2.6-2.4,4.3-5.7,4.3c-3.6,0-5.7-1.7-6-4.4h3.2c0.2,1.3,1.2,2,2.8,2c1.6,0,2.5-0.6,2.5-1.7
		c0-0.8-0.5-1.3-1.9-1.6l-2.3-0.5c-2.6-0.6-3.9-1.9-3.9-3.9C178,183.9,180.2,182.2,183.5,182.2z"/>
	<path fill="#FFFFFF" d="M191.5,182.5h3.1v2.4h0.1c0.6-1.6,2-2.6,3.9-2.6c1.9,0,3.3,1,3.8,2.8h0.1c0.7-1.7,2.3-2.8,4.3-2.8
		c2.7,0,4.5,1.8,4.5,4.6v9.4h-3.2v-8.6c0-1.7-0.9-2.6-2.5-2.6c-1.6,0-2.6,1.1-2.6,2.8v8.5h-3.1v-8.8c0-1.5-0.9-2.5-2.4-2.5
		c-1.6,0-2.6,1.2-2.6,2.9v8.4h-3.2V182.5z"/>
	<path fill="#FFFFFF" d="M225.8,192.1c-0.4,2.6-2.8,4.4-6.1,4.4c-4.1,0-6.6-2.7-6.6-7.1c0-4.3,2.5-7.2,6.5-7.2
		c3.9,0,6.3,2.7,6.3,6.9v1h-9.6v0.2c0,2.2,1.3,3.7,3.5,3.7c1.5,0,2.6-0.8,3-1.9H225.8z M216.4,188h6.4c-0.1-1.9-1.3-3.3-3.2-3.3
		C217.8,184.7,216.5,186.1,216.4,188z"/>
	<path fill="#FFFFFF" d="M232.2,179.3v3.2h2.6v2.5h-2.6v7.1c0,1.1,0.5,1.6,1.7,1.6c0.3,0,0.7,0,0.9-0.1v2.5c-0.3,0.1-1,0.1-1.7,0.1
		c-3,0-4.1-1-4.1-3.7V185h-2v-2.5h2v-3.2H232.2z"/>
	<path fill="#FFFFFF" d="M236.8,178.7c0-1,0.8-1.7,1.8-1.7s1.8,0.8,1.8,1.7c0,1-0.8,1.7-1.8,1.7S236.8,179.6,236.8,178.7z
		 M237,182.5h3.2v13.7H237V182.5z"/>
	<path fill="#FFFFFF" d="M252,187.4c-0.3-1.5-1.3-2.6-3-2.6c-2,0-3.3,1.7-3.3,4.5c0,2.9,1.3,4.5,3.4,4.5c1.6,0,2.7-0.9,3-2.5h3
		c-0.3,3.1-2.6,5.1-6.1,5.1c-4,0-6.6-2.7-6.6-7.1c0-4.4,2.6-7.1,6.6-7.1c3.6,0,5.9,2.3,6.1,5.2H252z"/>
	<path fill="#FFFFFF" d="M262.2,182.2c3.3,0,5.5,1.8,5.5,4.4h-3c-0.1-1.2-1-2-2.5-2c-1.4,0-2.4,0.7-2.4,1.7c0,0.8,0.6,1.3,2,1.7
		l2.3,0.5c2.8,0.6,3.9,1.7,3.9,3.7c0,2.6-2.4,4.3-5.7,4.3c-3.6,0-5.7-1.7-6-4.4h3.2c0.2,1.3,1.2,2,2.8,2c1.6,0,2.5-0.6,2.5-1.7
		c0-0.8-0.5-1.3-1.9-1.6l-2.3-0.5c-2.6-0.6-3.9-1.9-3.9-3.9C256.7,183.9,258.9,182.2,262.2,182.2z"/>
</g>
</svg>
