<svg id="Layer_1" data-name="Layer 1" xmlns="http://www.w3.org/2000/svg" viewBox="0 0 850.39 850.39"><defs><style>.cls-1{fill:#3dbd7d}</style></defs><circle class="cls-1" cx="960.36" cy="539.73" r="425.2" transform="rotate(-45 554.527 1128.468)"/><path d="M1274.42 727.32a364 364 0 0051.73-187.59c0-202-163.77-365.79-365.79-365.79S594.58 337.71 594.58 539.73a364.08 364.08 0 0051.72 187.59z" transform="translate(-535.17 -114.53)" fill="#fff"/><path class="cls-1" d="M943.07 655.47c10.58-57.67 21.76-267.36-198.29-332.72zM743.29 322.3l-.27-.08s-84 294 188.45 346.67z" transform="translate(-535.17 -114.53)"/><path class="cls-1" d="M957.3 640.41c-8.27-60.55-9.94-279.44 222.31-337zM1181.18 303l.29-.07S1255 613 968.75 655z" transform="translate(-535.17 -114.53)"/><text transform="matrix(1.05 0 0 1 213.16 757.96)" font-size="149" font-family="Roboto-Bold,Roboto" font-weight="700" letter-spacing="-.01em" fill="#fff">v<tspan x="74.35" y="0" letter-spacing="0">egan</tspan></text></svg>