<svg xmlns="http://www.w3.org/2000/svg"  viewBox="0 0 924.51 572.85">
 <defs>
    <clipPath id="woman-clip">
        <path class="cls-1" d="M489,163c55.76,8.65,93,19.55,118,61,2.29,3.79,21.09,39.17,17,43,3,4.33,8,42,8,42,21.26,46.49,35.28,83.66,16,141,12.27.76,7.23,9.42,15,16,12.61,10.68,40.13,30.27,45,47l-3,42,13,35,3,21v-2c22.38-47.23-20.85-106.34,1-158l2,1c-1,26.73,6.25,44,10,66v25c2.15-33.58,15.52-63.21,22-91,3.83-16.42-5.62-32.72-9-44-8.19,2.85-28.48-4-35-10v-1c11.2-2,20-.81,30,2l-16-19c-16.53,1.79-16.74,13.92-32,16-4.52-6.22,2.2-9.31,6-13l-11-1-1-4,10-6c-6.57-2-11.45-5.81-13-13h19l-1-11,4-1,9,9c1.24-4.05,1.61-5.06,5-7,15.38-4.3,3.28,19.87,7,29l13,13c-.54-11.75,2.57-22.18,11-25l-1,12c2.45,8.58-1.75,14.3-6,19,4.75,14.41,10.2,28.29,14,46h1v-2l5-12c-8.55-6.76-6.54-36.59-1-49l2,1c2.65,8.67,3.63,23.37,8,34v-2l13-21c-6.47-10.62-15.16-27.59-6-43l3,1,3,11h1c.36-6.24,1.25-7.38,5-10l3,8,2-1,5-6h3c2.64,8.67,6.17,4.71,8,13l9-3c3.36,5.7,2.55,8.42-1,14l9-1-2,6-6,4c4.32,1,2.8.35,5,3l-3,4c-14.07,3.26-23,4.95-35,1-8.4,26.05-27,46.59-35,75l5-4c7-14.87,46.15-49.34,63-54l1,1-1,3c-29.31,22.73-31.91,72.2-76,80l-7,36c20-15.55,34.24-33.13,60-44l1,2v1c-21.56,8-78.77,45.6-67,80v-2c18.54-17.38,30.93-40,54-53l1,1c-13.26,19.59-21.63,45.5-36,65-10.2,13.84-27.49,17.15-31,38h2c6.46,3.33,30.13,3,36,2,10.19-37.78,61-99.61,105-102v1l-21,22L792,641l2-1c6.66-15.21,26-34.27,42-40,3.56-1.27,7.55,1.6,9,1,16.06-6.59,30.68-23.76,48-32,8.77-4.18,29.27-12.16,42-7l4,2c-.12,10.17-3.82,13.25-8,19l40-9v3l-69,54,19,1,1,6-3,4c-32.24,9.5-86.5,32.42-107,53l2,15c40-19.09,77.16-36.32,134-40,15.77-1,48.35-4.43,59,4v1c-45.21,14-84.3,47.56-132,59H335c-45.46,0-174.18,8.21-197-10-10-8-30.6-24.37-20-40,14.62-4,36.91-6,48-14l-3-8c-12.1-2-51.85,8.2-55-5,11.52-8.14,28.12-13,40-21-.3-5.59-1-5.84-3-9h-1c-16.51.37-24,9.64-40,7-14.47-10.64-33.82-73.53-11-91,16.37-12.54,54.07-5.94,74-1,6.13,14-6.76,37.14,1,47h1c4.6-8.78,13.46-22.45,21-29l5,1,1,3c6.57,16.63-8.25,38.31-5,55h4l4-3,10-36c1.33-11.21-9-22-4-36h5c10.61,12.46,20.08,14.55,38,20-10.08-21-27.71-47.62-24-77h5a547.74,547.74,0,0,1,42,69l14,33c-6.2-40-30.81-68.88-23-115,18.84,5.23,40.71,79,41,108l2-1,29-136,5-47c17.55-72,21.5-143.77,63-196,13.94-17.55,44.4-29.29,56-34C470.8,162.81,479.15,168.32,489,163Z" transform="translate(-82.49 -163)"/><path class="cls-1" d="M451,171h0Z" transform="translate(-82.49 -163)"/><path class="cls-1" d="M545,174l2,1Z" transform="translate(-82.49 -163)"/><path class="cls-1" d="M334,421l1,2Z" transform="translate(-82.49 -163)"/><path class="cls-1" d="M280,430c6.32,1.34,6.58,5.16,10,6l3-3,2,5,4-5h3l1,2-4,9c4-1.58,5.73-2.48,9,0l-6,5h2c3.16,2.47,3.48,1.43,5,6h-2l-10-1,5,10h-5l-3-6-1,2c-2.46,4.27-2,6.91-7,9V458l-8,5-2-2,4-5c-5.65.18-5.61,1.72-8-3l11-4c-4.23-1.88-8.94-2.11-12-5v-1l15,2C282.75,439.57,279.4,436.86,280,430Z" transform="translate(-82.49 -163)"/><path class="cls-1" d="M159,469c9,1.39,8.81,6.24,13,12l2-7h4l2,8,8-9,4,2c-.09,7.85-2.09,10.4-5,15l13-2c-1.52,7-4.92,6.13-9,10,5.25.94,8.22,2.68,11,6-3.46,6.68-13.64,3.75-19,1l9,13c-1.26,3,0,1.2-2,3l-4,1-8-10v2l-7,15h-3l-1-1,1-17c-4.24,3.58-9.71,10.54-16,6l7-8H146l3-6,14-5-18-6v-1l5-3,18,4-2-2C162.24,482.21,156.21,478.3,159,469Z" transform="translate(-82.49 -163)"/><path class="cls-1" d="M263,477c-4.92,18.82.58,32.75,5,50l12,3c-5.62-16.41-13.35-29.35-14-47h1c.24,11.36,6.59,26.92,13,33-3,2.64,2.65,23.79,5,30,6.45,17,13.55,51.2,16,70h1c2.28-43.16-11-113.66-36-138l-1,5C264.69,478.76,265.06,479,263,477Z" transform="translate(-82.49 -163)"/><path class="cls-1" d="M641,477l-5,15a84.83,84.83,0,0,0,19,1C653.37,484.54,648.93,479.36,641,477Z" transform="translate(-82.49 -163)"/><path class="cls-1" d="M895,480c8.27,4.15,7.89,12.74,12,21v-2c3.4-6.7,5.18-13.37,9-19l6,2c-.12,8-2.32,10.85-5,16l8-3,1,1c-1.08,5.53-2.19,4.81-5,8,6.52-.08,9.25.92,13,3l-1,3c-2.66,3.84-6.69,4.82-13,5l7,8v3h-4l-8-4v1c1.92,4.93,2.1,8.64,0,13h-3c-3.35-4.89-6.06-8.36-7-16h-1l-6,16-5-3,4-13c-7,1.34-12.16,3.86-19,3v-4l14-8c-6.16-2.92-11.26-2.66-15-8l1-2,10,1-7-11,2-1,17,9C897.25,493.64,893.74,486.51,895,480Z" transform="translate(-82.49 -163)"/><path class="cls-1" d="M327,482v3l1-3Z" transform="translate(-82.49 -163)"/><path class="cls-1" d="M228,489l3,13h-1v-2l-5-10,2,20,7,3-3-11h1l11,25,4-3c-1.95,4.32-2.36,3.1-3,7l2,3,2-1c1.78-4.55,2.71-3.61,3-8C241.56,514.39,239.31,497.77,228,489Z" transform="translate(-82.49 -163)"/><path class="cls-1" d="M263,497h0Z" transform="translate(-82.49 -163)"/><path class="cls-1" d="M265,498l3,2Z" transform="translate(-82.49 -163)"/><path class="cls-1" d="M228,512c3.82,12,7.83,32.09,20,36v1l-6-2c5.53,14.16,11.25,21.24,23,29l-30-62Z" transform="translate(-82.49 -163)"/><path class="cls-1" d="M643,512l2,8c5.63-2.37,10.42-3.36,16-1l-3-6Z" transform="translate(-82.49 -163)"/><path class="cls-1" d="M280,515h0Z" transform="translate(-82.49 -163)"/><path class="cls-1" d="M321,524v0Z" transform="translate(-82.49 -163)"/><path class="cls-1" d="M269,528l2,9,11,2-2-8Z" transform="translate(-82.49 -163)"/><path class="cls-1" d="M252,529l-5,7,18,36,3-2c-1.88,9.34,8.16,18.45,16,24C278.93,573,266.19,542.22,252,529Z" transform="translate(-82.49 -163)"/><path class="cls-1" d="M638,580c1.71-19.87,16-22.92,17-44l-12,2c-1.75,14.75-13.26,27.57-10,42Z" transform="translate(-82.49 -163)"/><path class="cls-1" d="M272,538l23,74h2v-2c5-14.17-11.12-53.6-14-69Z" transform="translate(-82.49 -163)"/><path class="cls-1" d="M317,539v0Z" transform="translate(-82.49 -163)"/><path class="cls-1" d="M208,546c1.56,6.46,4.6,12.32,9,16l2-2,2-1-2-2Z" transform="translate(-82.49 -163)"/><path class="cls-1" d="M206,547c-2.76,8.83-.1,21.59,4,27h1l4-10Z" transform="translate(-82.49 -163)"/><path class="cls-1" d="M291,547h0Z" transform="translate(-82.49 -163)"/><path class="cls-1" d="M289,548h0Z" transform="translate(-82.49 -163)"/><path class="cls-1" d="M248,549h0Z" transform="translate(-82.49 -163)"/><path class="cls-1" d="M923,563l-28,8c-18.26,7.89-33.57,21-49,32,1.08,10-3,16-6,24l51-29,35-13c6.24-4.08,10.26-12.1,10-20l-2-1Z" transform="translate(-82.49 -163)"/><path class="cls-1" d="M269,567c-.22,1.47.41,1-1,3Z" transform="translate(-82.49 -163)"/><path class="cls-1" d="M307,581l-3,12h2Z" transform="translate(-82.49 -163)"/><path class="cls-1" d="M306,597v0Z" transform="translate(-82.49 -163)"/><path class="cls-1" d="M264,601l13,16-14-12v4a33.66,33.66,0,0,0,15,16l5-1v-1l-14-22Z" transform="translate(-82.49 -163)"/><path class="cls-1" d="M699,601l-3,7,9,4Z" transform="translate(-82.49 -163)"/><path class="cls-1" d="M835,602c-14.47,14.08-30.58,22.55-41,41l1,2,3-1c9.85-13.17,28.87-32.81,44-40v-1h-2Z" transform="translate(-82.49 -163)"/><path class="cls-1" d="M273,603c3.29,6.49,8.7,16.47,15,20C284.33,614.49,281.8,606.55,273,603Z" transform="translate(-82.49 -163)"/><path class="cls-1" d="M843,605l-46,42,5,8,4-4c16.36-6.93,38.14-23.34,39-46Z" transform="translate(-82.49 -163)"/><path class="cls-1" d="M298,612l-1,3,1,3h1Z" transform="translate(-82.49 -163)"/><path class="cls-1" d="M286,615l4,7Z" transform="translate(-82.49 -163)"/><path class="cls-1" d="M270,622l2,6,3-2-3-4Z" transform="translate(-82.49 -163)"/><path class="cls-1" d="M917,633c-27.77-.43-30.6,14.56-48,23v1C881.16,654.36,915.65,646.09,917,633Z" transform="translate(-82.49 -163)"/>
  </clipPath>
  </defs>
   <image href="images/woman.jpg" clip-path="url(#woman-clip)" x="3" y="0" width="924.51" height="572.85"/>
</svg>