<svg id="Layer_1" height="12.8em" data-name="Layer 1" xmlns="http://www.w3.org/2000/svg" viewBox="0 0 109.99 44.85"><defs><style>.cls-1{fill:#01b1bc;}.cls-2{fill:#3ac7cf;}.cls-3{fill:#1d7258;}.cls-4{fill:#74dce2;}.cls-5{fill:#adf2f5;}.cls-6{fill:#54a74d;}.cls-7{fill:#388d52;}.cls-8{fill:#fff;}</style></defs><title>logo4</title><path class="cls-1" d="M44.41,3.86A25.42,25.42,0,0,0,30.66,37,25.42,25.42,0,0,0,44.41,3.86Z" transform="translate(-5.24 -1.24)"/><path class="cls-2" d="M16.89,4A25.42,25.42,0,0,0,30.64,37.16,25.42,25.42,0,0,0,16.89,4Z" transform="translate(-5.24 -1.24)"/><path class="cls-3" d="M50.08,37.16H39.62v6H56A6,6,0,0,0,50.08,37.16Z" transform="translate(-5.24 -1.24)"/><path class="cls-3" d="M11.19,37.16H21.66v6H5.24A6,6,0,0,1,11.19,37.16Z" transform="translate(-5.24 -1.24)"/><path class="cls-4" d="M5.24,11.76a25.42,25.42,0,0,0,25.4,25.4A25.43,25.43,0,0,0,5.24,11.76Z" transform="translate(-5.24 -1.24)"/><path class="cls-2" d="M56,11.76a25.43,25.43,0,0,0-25.4,25.4A25.43,25.43,0,0,0,56,11.76Z" transform="translate(-5.24 -1.24)"/><path class="cls-4" d="M30.64,1.24l-5.95,18,5.95,18A25.43,25.43,0,0,0,30.64,1.24Z" transform="translate(-5.24 -1.24)"/><path class="cls-5" d="M30.64,37.16V1.24A25.43,25.43,0,0,0,30.64,37.16Z" transform="translate(-5.24 -1.24)"/><path class="cls-6" d="M21.66,37.16a9,9,0,0,0-8.93,8.93h9a9,9,0,0,0,8.93-8.93Z" transform="translate(-5.24 -1.24)"/><path class="cls-7" d="M39.62,37.16h-9a9,9,0,0,0,8.93,8.93h9A9,9,0,0,0,39.62,37.16Z" transform="translate(-5.24 -1.24)"/><path class="cls-8" d="M71.26,6.74H69v5.91H65.76V6.74H63.29V3.55h8Z" transform="translate(-5.24 -1.24)"/><path class="cls-8" d="M80.08,3.55v9.1H76.83V8.27H75.66v4.38H72.41V3.55h3.25V7.67h1.17V3.55Z" transform="translate(-5.24 -1.24)"/><path class="cls-8" d="M84.83,6.74v1h3.06v.6H84.83V9.45h3.76v3.2h-7V3.55h7V6.74Z" transform="translate(-5.24 -1.24)"/><path class="cls-8" d="M72.64,14.55,67.82,24,63,14.55Z" transform="translate(-5.24 -1.24)"/><path class="cls-8" d="M76.68,17.74v1h3.06v.6H76.68v1.08h3.76v3.2h-7v-9.1h7v3.19Z" transform="translate(-5.24 -1.24)"/><path class="cls-8" d="M90,19.2v3.3a5.28,5.28,0,0,1-3.64,1.3c-3.08,0-5-1.79-5-4.56s2.17-4.85,5.23-4.85V19.2Z" transform="translate(-5.24 -1.24)"/><path class="cls-8" d="M95.3,14.16l4.82,9.49H90.48Z" transform="translate(-5.24 -1.24)"/><path class="cls-8" d="M108.91,14.55v9.1H101V14.31l4.69,4.63V14.55Z" transform="translate(-5.24 -1.24)"/><path class="cls-8" d="M70.76,32.14c0,2.51-2.2,2.51-4,2.51H63.71v-9.1h2.74c1.67,0,3.83,0,3.83,2.23a1.91,1.91,0,0,1-1.42,1.95A2.45,2.45,0,0,1,70.76,32.14Z" transform="translate(-5.24 -1.24)"/><path class="cls-8" d="M75.11,28.74v1h3.06v.6H75.11v1.08h3.76v3.2h-7v-9.1h7v3.19Z" transform="translate(-5.24 -1.24)"/><path class="cls-8" d="M84.39,25.16l4.83,9.49H79.57Z" transform="translate(-5.24 -1.24)"/><path class="cls-8" d="M89.42,30.32V25.55h3.31v5.92h1V25.55H97v4.77c0,1.54,0,4.47-3.78,4.47S89.42,31.86,89.42,30.32Z" transform="translate(-5.24 -1.24)"/><path class="cls-8" d="M106,28.74h-2.25v5.91h-3.25V28.74H98V25.55h8Z" transform="translate(-5.24 -1.24)"/><path class="cls-8" d="M112.62,30.68v4h-3.25V31.14l-2.85-5.59h8.71Z" transform="translate(-5.24 -1.24)"/><path class="cls-8" d="M63.35,42.45c1.71,0,2.31-.44,3.27-2.86.83-2.09,2-3,4.11-3h.44v3.18h0c-1,0-1.38.92-1.91,2.39a4.86,4.86,0,0,1-5.06,3.53h-.84Z" transform="translate(-5.24 -1.24)"/><path class="cls-8" d="M80,36.55v9.1H76.79V41.27H75.62v4.38H72.37v-9.1h3.25v4.12h1.17V36.55Z" transform="translate(-5.24 -1.24)"/><path class="cls-8" d="M81.14,41.08a4.71,4.71,0,1,1,4.73,4.72A4.56,4.56,0,0,1,81.14,41.08Z" transform="translate(-5.24 -1.24)"/><path class="cls-8" d="M94.91,42.89v2.76H91.66v-9.1h3.25c1.08,0,4,.13,4,3.21C98.89,41.8,97.59,42.81,94.91,42.89Z" transform="translate(-5.24 -1.24)"/></svg>